<svg style="display: inline-block;" height="630" width="500" viewBox="0 0 400 460"
						xmlns="http://www.w3.org/2000/svg">
						<defs>
							<filter id="dropshadow">
								<feGaussianBlur in="SourceAlpha" stdDeviation="3" />
								<feOffset dx="2" dy="2" result="offsetblur" />
								<feMerge>
									<feMergeNode />
									<feMergeNode in="SourceGraphic" />
								</feMerge>
							</filter>
						</defs>
						<g filter="url(#dropshadow)">
							<path id="CD41" class="OUTLINE"
								d=" M 81 192 l 1 -2 -1 -1 -1 -7 -1 -3 1 -3 1 -4 -2 -3 0 -5 4 2 4 2 4 1 3 -1 4 -2 4 0 3 5 -1 -4 -1 -12 -1 -1 0 -1 0 0 0 0 0 0 0 0 3 -2 -1 -5 0 0 1 -3 0 -5 -1 1 -1 -4 3 -6 7 -2 7 -2 3 -2 5 -2 1 -4 1 -1 1 -1 3 -3 1 -6 1 -7 4 -4 3 -2 3 2 1 0 3 -5 1 -3 0 0 1 -2 2 -3 3 -7 8 2 3 -5 1 0 1 0 3 0 0 0 1 0 0 0 0 0 1 0 0 0 1 0 3 1 3 -1 1 0 1 3 4 9 1 5 6 1 4 -2 3 -3 4 0 -1 1 -1 5 0 6 4 2 3 3 2 -1 5 -3 5 0 6 2 1 5 1 8 2 6 6 2 6 1 2 5 6 3 4 3 1 3 -1 1 1 2 0 1 -1 4 -4 3 -5 4 -4 6 0 5 -1 2 1 2 1 6 -3 3 -1 4 7 1 -1 7 0 8 8 0 5 1 4 3 5 3 3 4 4 0 4 0 1 -1 3 2 7 3 4 3 1 2 -5 2 -4 2 1 1 -1 0 -3 4 2 5 2 3 0 6 -1 3 -1 5 -4 7 0 8 -1 7 0 6 -1 4 -1 6 -4 6 -2 5 -4 3 -8 0 0 7 -3 4 -1 1 -1 -1 -1 1 0 -1 0 3 -5 3 0 2 0 0 -2 1 -4 -2 -2 0 -3 1 -2 -1 -3 0 -2 5 -3 4 -5 3 -4 3 1 1 1 1 -5 4 -4 2 -4 2 -4 1 1 3 0 1 0 0 0 0 -2 3 -4 -4 -6 -3 -3 -3 -5 -3 -5 -2 -8 2 -1 3 -1 0 -2 0 -4 1 -7 1 -8 2 -6 2 -3 4 0 -4 -8 1 -8 -1 0 -7 3 -8 -9 -1 2 -7 -6 -3 -1 -5 -10 -11 0 -5 0 -4 -2 1 -1 -1 -1 1 -1 0 0 0 0 0 0 0 1 -4 2 -3 -3 0 -1 -4 -3 -5 -2 0 -2 1 -2 -1 2 3 -7 1 0 -7 0 -7 3 -2 -1 -1 1 0 6 -4 2 0 -3 1 -4 4 -2 3 2 1 4 3 3 3 -1 1 2 1 3 3 0 1 0 4 2 -1 3 -1 -2 -2 0 0 0 -1 1 -1 -1 -2 0 0 0 0 -1 -2 5 -3 6 1 5 0 0 0 1 2 -1 1 1 1 0 1 1 -4 1 0 -1 6 3 -6 1 -4 2 -1 -1 -1 3 0 4 3 1 1 1 -2 1 0 0 0 2 1 -1 -2 -7 -3 -7 -2 -4 -1 0 0 -1 0 -2 -2 -8 -5 -1 -4 9 -7 7 -2 -5 -2 0 -1 1 -1 0 -1 1 -2 1 -7 -2 -3 -2 -5 2 -2 1 -5 1 -3 3 2 2 1 0 0 0 0 0 0 3 1 0 8 2 4 3 -1 3 -2 1 2 0 0 2 3 1 3 3 3 3 -2 1 1 2 1 4 -3 6 -1 4 0 4 5 3 -1 0 -1 1 0 4 -3 4 -2 3 -8 1 -5 4 -3 0 -5 -8 1 -3 0 1 -6 0 0 0 -1 0 -2 0 -2 0 0 -1 -1 -1 -4 -2 -8 -7 -2 -3 -2 -2 0 -3 4 -2 4 -1 1 0 3 -4 -2 -7 1 -2 8 -1 4 -2 0 0 -1 -2 2 -7 -1 -4 -2 -1 0 0 1 0 0 0 0 0 1 -3 3 -5 -2 -4 -3 -5 -4 -3 -3 -4 -1 -3 4 -5 3 -7 -1 -2 -5 z M 120 292 l -5 1 -3 4 -5 4 -2 2 9 10 5 0 -1 -7 -1 -2 0 -1 3 -2 5 -4 -3 -2 1 -1 1 -1 -1 -2 1 -4 z " />
						</g>
						<!-- 지역 글자 -->
						<g filter="url(#dropshadow)">
							<text id="LCD41" class="TEXT" x="216" y="245">경기도</text>
						</g>
						<!-- 작물 이미지 -->
						<image href="static/img/main/png/감자.png" height="60" x="201" y="100" />
					</svg>